<svg width="32" height="32" viewBox="0 0 32 32" xmlns="http://www.w3.org/2000/svg">
  <defs>
    <linearGradient id="faviconGradient" x1="0%" y1="0%" x2="100%" y2="100%">
      <stop offset="0%" style="stop-color:#00d4ff;stop-opacity:1" />
      <stop offset="30%" style="stop-color:#0ea5e9;stop-opacity:1" />
      <stop offset="70%" style="stop-color:#f97316;stop-opacity:1" />
      <stop offset="100%" style="stop-color:#ef4444;stop-opacity:1" />
    </linearGradient>
    <filter id="faviconGlow">
      <feGaussianBlur stdDeviation="1" result="coloredBlur"/>
      <feMerge> 
        <feMergeNode in="coloredBlur"/>
        <feMergeNode in="SourceGraphic"/>
      </feMerge>
    </filter>
  </defs>
  
  <!-- Dark background -->
  <rect width="32" height="32" rx="4" fill="#0f0f23"/>
  
  <!-- Simplified S shape for favicon -->
  <path d="M 6 8 
           C 5 6, 8 5, 12 6
           C 16 7, 20 9, 22 12
           C 24 15, 20 16, 16 16
           C 12 16, 8 16, 6 18
           C 5 20, 8 21, 12 22
           C 16 23, 20 25, 22 26
           C 24 27, 20 28, 16 27
           C 12 26, 8 25, 6 24
           Z" 
        fill="url(#faviconGradient)" 
        filter="url(#faviconGlow)"
        stroke="#00d4ff" 
        stroke-width="0.3"/>
  
  <!-- Small circuit elements -->
  <circle cx="2" cy="6" r="0.6" fill="#00d4ff"/>
  <circle cx="30" cy="10" r="0.6" fill="#f97316"/>
  <circle cx="2" cy="26" r="0.6" fill="#f97316"/>
  <circle cx="30" cy="22" r="0.6" fill="#00d4ff"/>
  
  <!-- Tiny connecting lines -->
  <line x1="2" y1="6" x2="0" y2="4" stroke="#00d4ff" stroke-width="0.3" opacity="0.8"/>
  <line x1="30" y1="10" x2="32" y2="8" stroke="#f97316" stroke-width="0.3" opacity="0.8"/>
</svg>